<svg version="1.1" id="Layer_1" xmlns="http://www.w3.org/2000/svg" x="0" y="0" viewBox="0 0 38 38" xml:space="preserve"><style>.st0{fill:#7b83eb}.st1,.st2{opacity:.1;enable-background:new}.st2{opacity:.2}.st3{fill:#5059c9}</style><g id="Teams"><g id="Teams_32x" transform="translate(3 3)"><circle id="Oval" class="st0" cx="17" cy="6" r="4.667"/><path id="Path" class="st1" d="M16.667 7h-4.226l.021.093v.008l.022.086A4.67 4.67 0 0 0 18 10.559V8.333A1.337 1.337 0 0 0 16.667 7z"/><path id="Path_1_" class="st2" d="M15.667 8h-2.884A4.667 4.667 0 0 0 17 10.667V9.333A1.337 1.337 0 0 0 15.667 8z"/><circle id="Oval_1_" class="st3" cx="27.5" cy="7.5" r="3.5"/><path id="Path_2_" class="st3" d="M30.5 12h-7.861a.639.639 0 0 0-.639.639v8.11a5.121 5.121 0 0 0 3.966 5.085A5.006 5.006 0 0 0 32 20.937V13.5a1.5 1.5 0 0 0-1.5-1.5z"/><path id="Path_3_" class="st0" d="M25 13.5V23a7.995 7.995 0 0 1-14.92 4 7.178 7.178 0 0 1-.5-1 8.361 8.361 0 0 1-.33-1A8.239 8.239 0 0 1 9 23v-9.5a1.5 1.5 0 0 1 1.5-1.5h13a1.5 1.5 0 0 1 1.5 1.5z"/><path id="Path_4_" class="st2" d="M15.667 8h-2.884A4.667 4.667 0 0 0 17 10.667V9.333A1.337 1.337 0 0 0 15.667 8z"/><path id="Path_5_" class="st1" d="M18 12v12.67a1.32 1.32 0 0 1-1.04 1.29.97.97 0 0 1-.29.04H9.58a8.37 8.37 0 0 1-.33-1A8.239 8.239 0 0 1 9 23v-9.5a1.5 1.5 0 0 1 1.5-1.5H18z"/><path id="Path_6_" class="st2" d="M17 12v13.67a.967.967 0 0 1-.04.29A1.32 1.32 0 0 1 15.67 27h-5.59a7.178 7.178 0 0 1-.5-1 8.361 8.361 0 0 1-.33-1A8.239 8.239 0 0 1 9 23v-9.5a1.5 1.5 0 0 1 1.5-1.5H17z"/><path id="Path_7_" class="st2" d="M17 12v11.67A1.336 1.336 0 0 1 15.67 25H9.25A8.239 8.239 0 0 1 9 23v-9.5a1.5 1.5 0 0 1 1.5-1.5H17z"/><path id="Path_8_" class="st2" d="M10.5 12A1.5 1.5 0 0 0 9 13.5V23c.001.674.085 1.346.25 2h5.42A1.336 1.336 0 0 0 16 23.67V12h-5.5z"/><path id="Rectangle" d="M1.333 8h13.334C15.403 8 16 8.597 16 9.333v13.334c0 .736-.597 1.333-1.333 1.333H1.333A1.333 1.333 0 0 1 0 22.667V9.333C0 8.597.597 8 1.333 8z" fill="#4b53bc"/><path id="Path_9_" fill="#fff" d="M11.973 12.974H8.99v8.02H7.029v-8.02h-3V11h7.944z"/><path id="Rectangle_1_" fill="none" d="M0 0h32v32H0z"/></g></g></svg>