<svg xmlns="http://www.w3.org/2000/svg" viewBox="0 0 40 40"><path fill="#E1DFDD" d="M35.971 36.668H4.03A4.029 4.029 0 0 1 0 32.639V8.361a4.029 4.029 0 0 1 4.029-4.029H35.97A4.029 4.029 0 0 1 40 8.361v24.278a4.029 4.029 0 0 1-4.029 4.029z"/><path fill="#BDBDE6" d="M40 10.257H0V8.361a4.029 4.029 0 0 1 4.029-4.029H35.97A4.029 4.029 0 0 1 40 8.361v1.896z"/><circle fill="#F3F2F1" cx="26.342" cy="7.295" r="1.172"/><circle fill="#F3F2F1" cx="30.402" cy="7.295" r="1.172"/><circle fill="#F3F2F1" cx="34.461" cy="7.295" r="1.172"/><path d="M6.188 16.321H23.79v14.283H6.188zm21.038 0h6.586v14.283h-6.586z" fill="#F3F2F1"/></svg>